<mxfile host="app.diagrams.net" modified="2020-05-14T17:14:40.650Z" agent="5.0 (Windows NT 10.0; Win64; x64) AppleWebKit/537.36 (KHTML, like Gecko) Chrome/81.0.4044.138 Safari/537.36" etag="qt3a_M-gZXPVDaTu1gHk" version="13.1.1" type="github">
  <diagram id="CHu45XtJOqBpzsB6C5ND" name="Page-1">
    <mxGraphModel dx="2414" dy="830" grid="1" gridSize="10" guides="1" tooltips="1" connect="1" arrows="1" fold="1" page="1" pageScale="1" pageWidth="850" pageHeight="1100" math="0" shadow="0">
      <root>
        <mxCell id="0" />
        <mxCell id="1" parent="0" />
        <mxCell id="jTlXZSJkSVps8n7bUzwx-30" value="" style="group" parent="1" vertex="1" connectable="0">
          <mxGeometry x="2180" y="2010" width="200" height="390" as="geometry" />
        </mxCell>
        <mxCell id="jTlXZSJkSVps8n7bUzwx-28" value="" style="group" parent="jTlXZSJkSVps8n7bUzwx-30" vertex="1" connectable="0">
          <mxGeometry width="200" height="390" as="geometry" />
        </mxCell>
        <mxCell id="jTlXZSJkSVps8n7bUzwx-32" value="" style="verticalLabelPosition=bottom;verticalAlign=top;html=1;shadow=0;dashed=0;strokeWidth=1;shape=mxgraph.ios.iBgFlat;strokeColor=#6c8ebf;fillColor=#dae8fc;gradientColor=#7ea6e0;" parent="jTlXZSJkSVps8n7bUzwx-28" vertex="1">
          <mxGeometry x="8" y="81" width="187" height="279" as="geometry" />
        </mxCell>
        <mxCell id="jTlXZSJkSVps8n7bUzwx-29" value="" style="strokeWidth=1;html=1;shadow=0;dashed=0;shape=mxgraph.android.action_bar;fillColor=#1A1A1A;strokeColor=#c0c0c0;strokeWidth=2;fontColor=#FFFFFF;" parent="jTlXZSJkSVps8n7bUzwx-28" vertex="1">
          <mxGeometry x="8" y="51" width="185" height="30" as="geometry" />
        </mxCell>
        <mxCell id="jTlXZSJkSVps8n7bUzwx-27" value="" style="strokeWidth=1;html=1;shadow=0;dashed=0;shape=mxgraph.android.statusBar;align=center;fillColor=#000000;strokeColor=#ffffff;fontColor=#ffffff;fontSize=10;aspect=fixed;" parent="jTlXZSJkSVps8n7bUzwx-28" vertex="1">
          <mxGeometry x="8" y="35" width="185" height="15.92" as="geometry" />
        </mxCell>
        <mxCell id="jTlXZSJkSVps8n7bUzwx-26" value="" style="verticalLabelPosition=bottom;verticalAlign=top;html=1;shadow=0;dashed=0;strokeWidth=1;shape=mxgraph.android.phone2;strokeColor=#c0c0c0;" parent="jTlXZSJkSVps8n7bUzwx-28" vertex="1">
          <mxGeometry width="200" height="390" as="geometry" />
        </mxCell>
        <mxCell id="jTlXZSJkSVps8n7bUzwx-33" value="" style="group" parent="1" vertex="1" connectable="0">
          <mxGeometry x="325" y="355" width="200" height="390" as="geometry" />
        </mxCell>
        <mxCell id="jTlXZSJkSVps8n7bUzwx-34" value="" style="group" parent="jTlXZSJkSVps8n7bUzwx-33" vertex="1" connectable="0">
          <mxGeometry width="200" height="390" as="geometry" />
        </mxCell>
        <mxCell id="jTlXZSJkSVps8n7bUzwx-35" value="" style="verticalLabelPosition=bottom;verticalAlign=top;html=1;shadow=0;dashed=0;strokeWidth=1;shape=mxgraph.ios.iBgFlat;strokeColor=#6c8ebf;fillColor=#dae8fc;gradientColor=#7ea6e0;" parent="jTlXZSJkSVps8n7bUzwx-34" vertex="1">
          <mxGeometry x="8" y="81" width="187" height="279" as="geometry" />
        </mxCell>
        <mxCell id="jTlXZSJkSVps8n7bUzwx-36" value="Storage Manager" style="strokeWidth=1;html=1;shadow=0;dashed=0;shape=mxgraph.android.action_bar;fillColor=#1A1A1A;strokeColor=#c0c0c0;strokeWidth=2;fontColor=#FFFFFF;" parent="jTlXZSJkSVps8n7bUzwx-34" vertex="1">
          <mxGeometry x="8" y="51" width="185" height="30" as="geometry" />
        </mxCell>
        <mxCell id="jTlXZSJkSVps8n7bUzwx-37" value="" style="strokeWidth=1;html=1;shadow=0;dashed=0;shape=mxgraph.android.statusBar;align=center;fillColor=#000000;strokeColor=#ffffff;fontColor=#ffffff;fontSize=10;aspect=fixed;" parent="jTlXZSJkSVps8n7bUzwx-34" vertex="1">
          <mxGeometry x="8" y="35" width="185" height="15.92" as="geometry" />
        </mxCell>
        <mxCell id="jTlXZSJkSVps8n7bUzwx-38" value="" style="verticalLabelPosition=bottom;verticalAlign=top;html=1;shadow=0;dashed=0;strokeWidth=1;shape=mxgraph.android.phone2;strokeColor=#c0c0c0;" parent="jTlXZSJkSVps8n7bUzwx-34" vertex="1">
          <mxGeometry width="200" height="390" as="geometry" />
        </mxCell>
        <mxCell id="jTlXZSJkSVps8n7bUzwx-39" value="Store Item" style="rounded=1;html=1;shadow=0;dashed=0;whiteSpace=wrap;fontSize=10;fillColor=#666666;align=center;strokeColor=#4D4D4D;fontColor=#ffffff;" parent="jTlXZSJkSVps8n7bUzwx-34" vertex="1">
          <mxGeometry x="47.25" y="130" width="105.5" height="16.88" as="geometry" />
        </mxCell>
        <mxCell id="jTlXZSJkSVps8n7bUzwx-40" value="Unbox Item" style="rounded=1;html=1;shadow=0;dashed=0;whiteSpace=wrap;fontSize=10;fillColor=#666666;align=center;strokeColor=#4D4D4D;fontColor=#ffffff;" parent="jTlXZSJkSVps8n7bUzwx-34" vertex="1">
          <mxGeometry x="47.25" y="180" width="105.5" height="16.88" as="geometry" />
        </mxCell>
        <mxCell id="jTlXZSJkSVps8n7bUzwx-41" value="Expire List" style="rounded=1;html=1;shadow=0;dashed=0;whiteSpace=wrap;fontSize=10;fillColor=#666666;align=center;strokeColor=#4D4D4D;fontColor=#ffffff;" parent="jTlXZSJkSVps8n7bUzwx-34" vertex="1">
          <mxGeometry x="47.25" y="230" width="105.5" height="16.88" as="geometry" />
        </mxCell>
        <mxCell id="jTlXZSJkSVps8n7bUzwx-109" value="stock supplies last" style="rounded=1;html=1;shadow=0;dashed=0;whiteSpace=wrap;fontSize=10;fillColor=#647687;align=center;strokeColor=#314354;fontColor=#A6A6A6;" parent="jTlXZSJkSVps8n7bUzwx-34" vertex="1">
          <mxGeometry x="47" y="280" width="105.5" height="16.88" as="geometry" />
        </mxCell>
        <mxCell id="jTlXZSJkSVps8n7bUzwx-42" value="" style="group" parent="1" vertex="1" connectable="0">
          <mxGeometry x="-390" y="355" width="200" height="390" as="geometry" />
        </mxCell>
        <mxCell id="jTlXZSJkSVps8n7bUzwx-43" value="" style="group" parent="jTlXZSJkSVps8n7bUzwx-42" vertex="1" connectable="0">
          <mxGeometry width="200" height="390" as="geometry" />
        </mxCell>
        <mxCell id="jTlXZSJkSVps8n7bUzwx-44" value="" style="verticalLabelPosition=bottom;verticalAlign=top;html=1;shadow=0;dashed=0;strokeWidth=1;shape=mxgraph.ios.iBgFlat;strokeColor=#6c8ebf;fillColor=#dae8fc;gradientColor=#7ea6e0;" parent="jTlXZSJkSVps8n7bUzwx-43" vertex="1">
          <mxGeometry x="8" y="81" width="187" height="279" as="geometry" />
        </mxCell>
        <mxCell id="jTlXZSJkSVps8n7bUzwx-45" value="Store Item" style="strokeWidth=1;html=1;shadow=0;dashed=0;shape=mxgraph.android.action_bar;fillColor=#1A1A1A;strokeColor=#c0c0c0;strokeWidth=2;fontColor=#FFFFFF;" parent="jTlXZSJkSVps8n7bUzwx-43" vertex="1">
          <mxGeometry x="8" y="51" width="185" height="30" as="geometry" />
        </mxCell>
        <mxCell id="jTlXZSJkSVps8n7bUzwx-46" value="" style="strokeWidth=1;html=1;shadow=0;dashed=0;shape=mxgraph.android.statusBar;align=center;fillColor=#000000;strokeColor=#ffffff;fontColor=#ffffff;fontSize=10;aspect=fixed;" parent="jTlXZSJkSVps8n7bUzwx-43" vertex="1">
          <mxGeometry x="8" y="35" width="185" height="15.92" as="geometry" />
        </mxCell>
        <mxCell id="jTlXZSJkSVps8n7bUzwx-47" value="" style="verticalLabelPosition=bottom;verticalAlign=top;html=1;shadow=0;dashed=0;strokeWidth=1;shape=mxgraph.android.phone2;strokeColor=#c0c0c0;" parent="jTlXZSJkSVps8n7bUzwx-43" vertex="1">
          <mxGeometry width="200" height="390" as="geometry" />
        </mxCell>
        <mxCell id="jTlXZSJkSVps8n7bUzwx-106" value="Scan" style="rounded=1;html=1;shadow=0;dashed=0;whiteSpace=wrap;fontSize=10;fillColor=#666666;align=center;strokeColor=#4D4D4D;fontColor=#ffffff;" parent="jTlXZSJkSVps8n7bUzwx-43" vertex="1">
          <mxGeometry x="49.25" y="130" width="105.5" height="16.88" as="geometry" />
        </mxCell>
        <mxCell id="jTlXZSJkSVps8n7bUzwx-107" value="Select Product" style="rounded=1;html=1;shadow=0;dashed=0;whiteSpace=wrap;fontSize=10;fillColor=#666666;align=center;strokeColor=#4D4D4D;fontColor=#ffffff;" parent="jTlXZSJkSVps8n7bUzwx-43" vertex="1">
          <mxGeometry x="49.25" y="180" width="105.5" height="16.88" as="geometry" />
        </mxCell>
        <mxCell id="jTlXZSJkSVps8n7bUzwx-108" value="Add new Product" style="rounded=1;html=1;shadow=0;dashed=0;whiteSpace=wrap;fontSize=10;fillColor=#666666;align=center;strokeColor=#4D4D4D;fontColor=#ffffff;" parent="jTlXZSJkSVps8n7bUzwx-43" vertex="1">
          <mxGeometry x="48.25" y="230" width="105.5" height="16.88" as="geometry" />
        </mxCell>
        <mxCell id="jTlXZSJkSVps8n7bUzwx-48" value="" style="group" parent="1" vertex="1" connectable="0">
          <mxGeometry x="50" y="1170" width="200" height="390" as="geometry" />
        </mxCell>
        <mxCell id="jTlXZSJkSVps8n7bUzwx-49" value="" style="group" parent="jTlXZSJkSVps8n7bUzwx-48" vertex="1" connectable="0">
          <mxGeometry width="200" height="390" as="geometry" />
        </mxCell>
        <mxCell id="jTlXZSJkSVps8n7bUzwx-50" value="" style="verticalLabelPosition=bottom;verticalAlign=top;html=1;shadow=0;dashed=0;strokeWidth=1;shape=mxgraph.ios.iBgFlat;strokeColor=#6c8ebf;fillColor=#dae8fc;gradientColor=#7ea6e0;" parent="jTlXZSJkSVps8n7bUzwx-49" vertex="1">
          <mxGeometry x="8" y="81" width="187" height="279" as="geometry" />
        </mxCell>
        <mxCell id="jTlXZSJkSVps8n7bUzwx-51" value="Unbox Item" style="strokeWidth=1;html=1;shadow=0;dashed=0;shape=mxgraph.android.action_bar;fillColor=#1A1A1A;strokeColor=#c0c0c0;strokeWidth=2;fontColor=#FFFFFF;" parent="jTlXZSJkSVps8n7bUzwx-49" vertex="1">
          <mxGeometry x="8" y="51" width="185" height="30" as="geometry" />
        </mxCell>
        <mxCell id="jTlXZSJkSVps8n7bUzwx-52" value="" style="strokeWidth=1;html=1;shadow=0;dashed=0;shape=mxgraph.android.statusBar;align=center;fillColor=#000000;strokeColor=#ffffff;fontColor=#ffffff;fontSize=10;aspect=fixed;" parent="jTlXZSJkSVps8n7bUzwx-49" vertex="1">
          <mxGeometry x="8" y="35" width="185" height="15.92" as="geometry" />
        </mxCell>
        <mxCell id="jTlXZSJkSVps8n7bUzwx-53" value="" style="verticalLabelPosition=bottom;verticalAlign=top;html=1;shadow=0;dashed=0;strokeWidth=1;shape=mxgraph.android.phone2;strokeColor=#c0c0c0;" parent="jTlXZSJkSVps8n7bUzwx-49" vertex="1">
          <mxGeometry width="200" height="390" as="geometry" />
        </mxCell>
        <mxCell id="jTlXZSJkSVps8n7bUzwx-117" value="Scan" style="rounded=1;html=1;shadow=0;dashed=0;whiteSpace=wrap;fontSize=10;fillColor=#666666;align=center;strokeColor=#4D4D4D;fontColor=#ffffff;" parent="jTlXZSJkSVps8n7bUzwx-49" vertex="1">
          <mxGeometry x="47.25" y="130" width="105.5" height="16.88" as="geometry" />
        </mxCell>
        <mxCell id="jTlXZSJkSVps8n7bUzwx-31" value="Red Box" style="strokeWidth=1;shadow=0;dashed=0;align=center;html=1;shape=mxgraph.mockup.forms.comboBox;strokeColor=#999999;fillColor=#ddeeff;align=left;fillColor2=#aaddff;mainText=;fontColor=#666666;fontSize=17;spacingLeft=3;" parent="jTlXZSJkSVps8n7bUzwx-49" vertex="1">
          <mxGeometry x="25" y="180" width="150" height="30" as="geometry" />
        </mxCell>
        <mxCell id="jTlXZSJkSVps8n7bUzwx-127" value="Red Box" style="strokeWidth=1;shadow=0;dashed=0;align=center;html=1;shape=mxgraph.mockup.forms.comboBox;strokeColor=#999999;fillColor=#ddeeff;align=left;fillColor2=#aaddff;mainText=;fontColor=#666666;fontSize=17;spacingLeft=3;" parent="jTlXZSJkSVps8n7bUzwx-49" vertex="1">
          <mxGeometry x="25" y="250" width="150" height="30" as="geometry" />
        </mxCell>
        <mxCell id="jTlXZSJkSVps8n7bUzwx-128" value="Use Seleted Item" style="rounded=1;html=1;shadow=0;dashed=0;whiteSpace=wrap;fontSize=10;fillColor=#66FF66;align=center;strokeColor=#4D4D4D;fontColor=#1A1A1A;gradientColor=#00CC00;" parent="jTlXZSJkSVps8n7bUzwx-49" vertex="1">
          <mxGeometry x="47.25" y="310" width="105.5" height="16.88" as="geometry" />
        </mxCell>
        <mxCell id="jTlXZSJkSVps8n7bUzwx-54" value="" style="group" parent="1" vertex="1" connectable="0">
          <mxGeometry x="840" y="1180" width="200" height="390" as="geometry" />
        </mxCell>
        <mxCell id="jTlXZSJkSVps8n7bUzwx-55" value="" style="group" parent="jTlXZSJkSVps8n7bUzwx-54" vertex="1" connectable="0">
          <mxGeometry width="200" height="390" as="geometry" />
        </mxCell>
        <mxCell id="jTlXZSJkSVps8n7bUzwx-56" value="" style="verticalLabelPosition=bottom;verticalAlign=top;html=1;shadow=0;dashed=0;strokeWidth=1;shape=mxgraph.ios.iBgFlat;strokeColor=#6c8ebf;fillColor=#dae8fc;gradientColor=#7ea6e0;" parent="jTlXZSJkSVps8n7bUzwx-55" vertex="1">
          <mxGeometry x="8" y="81" width="187" height="279" as="geometry" />
        </mxCell>
        <mxCell id="jTlXZSJkSVps8n7bUzwx-57" value="Expire List" style="strokeWidth=1;html=1;shadow=0;dashed=0;shape=mxgraph.android.action_bar;fillColor=#1A1A1A;strokeColor=#c0c0c0;strokeWidth=2;fontColor=#FFFFFF;" parent="jTlXZSJkSVps8n7bUzwx-55" vertex="1">
          <mxGeometry x="8" y="51" width="185" height="30" as="geometry" />
        </mxCell>
        <mxCell id="jTlXZSJkSVps8n7bUzwx-58" value="" style="strokeWidth=1;html=1;shadow=0;dashed=0;shape=mxgraph.android.statusBar;align=center;fillColor=#000000;strokeColor=#ffffff;fontColor=#ffffff;fontSize=10;aspect=fixed;" parent="jTlXZSJkSVps8n7bUzwx-55" vertex="1">
          <mxGeometry x="8" y="35" width="185" height="15.92" as="geometry" />
        </mxCell>
        <mxCell id="jTlXZSJkSVps8n7bUzwx-59" value="" style="verticalLabelPosition=bottom;verticalAlign=top;html=1;shadow=0;dashed=0;strokeWidth=1;shape=mxgraph.android.phone2;strokeColor=#c0c0c0;" parent="jTlXZSJkSVps8n7bUzwx-55" vertex="1">
          <mxGeometry width="200" height="390" as="geometry" />
        </mxCell>
        <mxCell id="jTlXZSJkSVps8n7bUzwx-118" value="&lt;b&gt;&lt;font style=&quot;font-size: 20px&quot;&gt;Milk&lt;/font&gt;&lt;/b&gt;&lt;br style=&quot;font-size: 14px&quot;&gt;&lt;br style=&quot;font-size: 14px&quot;&gt;Blue box" style="html=1;shadow=0;dashed=0;shape=mxgraph.bootstrap.rrect;rSize=5;strokeColor=#BA2239;html=1;whiteSpace=wrap;fillColor=#DB2843;fontColor=#ffffff;verticalAlign=bottom;align=left;spacing=20;spacingBottom=0;fontSize=14;" parent="jTlXZSJkSVps8n7bUzwx-55" vertex="1">
          <mxGeometry x="16.5" y="90" width="170" height="110" as="geometry" />
        </mxCell>
        <mxCell id="jTlXZSJkSVps8n7bUzwx-119" value="2020-05-25" style="html=1;shadow=0;dashed=0;shape=mxgraph.bootstrap.topButton;rSize=5;perimeter=none;whiteSpace=wrap;fillColor=#D42741;strokeColor=#BA2239;fontColor=#ffffff;resizeWidth=1;fontSize=18;align=left;spacing=20;" parent="jTlXZSJkSVps8n7bUzwx-118" vertex="1">
          <mxGeometry width="170" height="30" relative="1" as="geometry" />
        </mxCell>
        <mxCell id="jTlXZSJkSVps8n7bUzwx-124" value="&lt;b&gt;&lt;font style=&quot;font-size: 20px&quot;&gt;Milk&lt;/font&gt;&lt;/b&gt;&lt;br style=&quot;font-size: 14px&quot;&gt;&lt;br style=&quot;font-size: 14px&quot;&gt;Green Box" style="html=1;shadow=0;dashed=0;shape=mxgraph.bootstrap.rrect;rSize=5;strokeColor=#D89F20;html=1;whiteSpace=wrap;fillColor=#FFBC26;fontColor=#ffffff;verticalAlign=bottom;align=left;spacing=20;spacingBottom=0;fontSize=14;" parent="jTlXZSJkSVps8n7bUzwx-55" vertex="1">
          <mxGeometry x="16.5" y="220" width="170" height="110" as="geometry" />
        </mxCell>
        <mxCell id="jTlXZSJkSVps8n7bUzwx-125" value="2020-06-25" style="html=1;shadow=0;dashed=0;shape=mxgraph.bootstrap.topButton;rSize=5;perimeter=none;whiteSpace=wrap;fillColor=#F7B625;strokeColor=#D89F20;fontColor=#ffffff;resizeWidth=1;fontSize=18;align=left;spacing=20;" parent="jTlXZSJkSVps8n7bUzwx-124" vertex="1">
          <mxGeometry width="170" height="30" relative="1" as="geometry" />
        </mxCell>
        <mxCell id="jTlXZSJkSVps8n7bUzwx-60" value="" style="group" parent="1" vertex="1" connectable="0">
          <mxGeometry x="930" y="220" width="200" height="390" as="geometry" />
        </mxCell>
        <mxCell id="jTlXZSJkSVps8n7bUzwx-61" value="" style="group" parent="jTlXZSJkSVps8n7bUzwx-60" vertex="1" connectable="0">
          <mxGeometry width="200" height="390" as="geometry" />
        </mxCell>
        <mxCell id="jTlXZSJkSVps8n7bUzwx-62" value="" style="verticalLabelPosition=bottom;verticalAlign=top;html=1;shadow=0;dashed=0;strokeWidth=1;shape=mxgraph.ios.iBgFlat;strokeColor=#6c8ebf;fillColor=#dae8fc;gradientColor=#7ea6e0;" parent="jTlXZSJkSVps8n7bUzwx-61" vertex="1">
          <mxGeometry x="8" y="81" width="187" height="279" as="geometry" />
        </mxCell>
        <mxCell id="jTlXZSJkSVps8n7bUzwx-63" value="Stock supplies last" style="strokeWidth=1;html=1;shadow=0;dashed=0;shape=mxgraph.android.action_bar;fillColor=#1A1A1A;strokeColor=#c0c0c0;strokeWidth=2;fontColor=#FFFFFF;" parent="jTlXZSJkSVps8n7bUzwx-61" vertex="1">
          <mxGeometry x="8" y="51" width="185" height="30" as="geometry" />
        </mxCell>
        <mxCell id="jTlXZSJkSVps8n7bUzwx-64" value="" style="strokeWidth=1;html=1;shadow=0;dashed=0;shape=mxgraph.android.statusBar;align=center;fillColor=#000000;strokeColor=#ffffff;fontColor=#ffffff;fontSize=10;aspect=fixed;" parent="jTlXZSJkSVps8n7bUzwx-61" vertex="1">
          <mxGeometry x="8" y="35" width="185" height="15.92" as="geometry" />
        </mxCell>
        <mxCell id="jTlXZSJkSVps8n7bUzwx-65" value="" style="verticalLabelPosition=bottom;verticalAlign=top;html=1;shadow=0;dashed=0;strokeWidth=1;shape=mxgraph.android.phone2;strokeColor=#c0c0c0;" parent="jTlXZSJkSVps8n7bUzwx-61" vertex="1">
          <mxGeometry width="200" height="390" as="geometry" />
        </mxCell>
        <mxCell id="jTlXZSJkSVps8n7bUzwx-66" value="" style="group" parent="1" vertex="1" connectable="0">
          <mxGeometry x="-750" y="580" width="200" height="390" as="geometry" />
        </mxCell>
        <mxCell id="jTlXZSJkSVps8n7bUzwx-67" value="" style="group" parent="jTlXZSJkSVps8n7bUzwx-66" vertex="1" connectable="0">
          <mxGeometry width="200" height="390" as="geometry" />
        </mxCell>
        <mxCell id="jTlXZSJkSVps8n7bUzwx-68" value="" style="verticalLabelPosition=bottom;verticalAlign=top;html=1;shadow=0;dashed=0;strokeWidth=1;shape=mxgraph.ios.iBgFlat;strokeColor=#6c8ebf;fillColor=#dae8fc;gradientColor=#7ea6e0;" parent="jTlXZSJkSVps8n7bUzwx-67" vertex="1">
          <mxGeometry x="8" y="81" width="187" height="279" as="geometry" />
        </mxCell>
        <mxCell id="jTlXZSJkSVps8n7bUzwx-69" value="Scan Item" style="strokeWidth=1;html=1;shadow=0;dashed=0;shape=mxgraph.android.action_bar;fillColor=#1A1A1A;strokeColor=#c0c0c0;strokeWidth=2;fontColor=#FFFFFF;" parent="jTlXZSJkSVps8n7bUzwx-67" vertex="1">
          <mxGeometry x="8" y="51" width="185" height="30" as="geometry" />
        </mxCell>
        <mxCell id="jTlXZSJkSVps8n7bUzwx-70" value="" style="strokeWidth=1;html=1;shadow=0;dashed=0;shape=mxgraph.android.statusBar;align=center;fillColor=#000000;strokeColor=#ffffff;fontColor=#ffffff;fontSize=10;aspect=fixed;" parent="jTlXZSJkSVps8n7bUzwx-67" vertex="1">
          <mxGeometry x="8" y="35" width="185" height="15.92" as="geometry" />
        </mxCell>
        <mxCell id="jTlXZSJkSVps8n7bUzwx-71" value="" style="verticalLabelPosition=bottom;verticalAlign=top;html=1;shadow=0;dashed=0;strokeWidth=1;shape=mxgraph.android.phone2;strokeColor=#c0c0c0;" parent="jTlXZSJkSVps8n7bUzwx-67" vertex="1">
          <mxGeometry width="200" height="390" as="geometry" />
        </mxCell>
        <mxCell id="jTlXZSJkSVps8n7bUzwx-72" value="" style="group" parent="1" vertex="1" connectable="0">
          <mxGeometry x="-390" y="970" width="200" height="390" as="geometry" />
        </mxCell>
        <mxCell id="jTlXZSJkSVps8n7bUzwx-73" value="" style="group" parent="jTlXZSJkSVps8n7bUzwx-72" vertex="1" connectable="0">
          <mxGeometry width="200" height="390" as="geometry" />
        </mxCell>
        <mxCell id="jTlXZSJkSVps8n7bUzwx-74" value="" style="verticalLabelPosition=bottom;verticalAlign=top;html=1;shadow=0;dashed=0;strokeWidth=1;shape=mxgraph.ios.iBgFlat;strokeColor=#6c8ebf;fillColor=#dae8fc;gradientColor=#7ea6e0;" parent="jTlXZSJkSVps8n7bUzwx-73" vertex="1">
          <mxGeometry x="8" y="81" width="187" height="279" as="geometry" />
        </mxCell>
        <mxCell id="jTlXZSJkSVps8n7bUzwx-75" value="" style="strokeWidth=1;html=1;shadow=0;dashed=0;shape=mxgraph.android.action_bar;fillColor=#1A1A1A;strokeColor=#c0c0c0;strokeWidth=2;fontColor=#FFFFFF;" parent="jTlXZSJkSVps8n7bUzwx-73" vertex="1">
          <mxGeometry x="8" y="51" width="185" height="30" as="geometry" />
        </mxCell>
        <mxCell id="jTlXZSJkSVps8n7bUzwx-76" value="" style="strokeWidth=1;html=1;shadow=0;dashed=0;shape=mxgraph.android.statusBar;align=center;fillColor=#000000;strokeColor=#ffffff;fontColor=#ffffff;fontSize=10;aspect=fixed;" parent="jTlXZSJkSVps8n7bUzwx-73" vertex="1">
          <mxGeometry x="8" y="35" width="185" height="15.92" as="geometry" />
        </mxCell>
        <mxCell id="jTlXZSJkSVps8n7bUzwx-77" value="" style="verticalLabelPosition=bottom;verticalAlign=top;html=1;shadow=0;dashed=0;strokeWidth=1;shape=mxgraph.android.phone2;strokeColor=#c0c0c0;" parent="jTlXZSJkSVps8n7bUzwx-73" vertex="1">
          <mxGeometry width="200" height="390" as="geometry" />
        </mxCell>
        <mxCell id="jTlXZSJkSVps8n7bUzwx-102" value="" style="shape=flexArrow;endArrow=classic;html=1;" parent="1" source="jTlXZSJkSVps8n7bUzwx-38" target="jTlXZSJkSVps8n7bUzwx-47" edge="1">
          <mxGeometry width="50" height="50" relative="1" as="geometry">
            <mxPoint x="250" y="411" as="sourcePoint" />
            <mxPoint x="250" y="20" as="targetPoint" />
          </mxGeometry>
        </mxCell>
        <mxCell id="jTlXZSJkSVps8n7bUzwx-103" value="" style="shape=flexArrow;endArrow=classic;html=1;" parent="1" source="jTlXZSJkSVps8n7bUzwx-38" target="jTlXZSJkSVps8n7bUzwx-53" edge="1">
          <mxGeometry width="50" height="50" relative="1" as="geometry">
            <mxPoint x="440" y="530" as="sourcePoint" />
            <mxPoint x="490" y="480" as="targetPoint" />
          </mxGeometry>
        </mxCell>
        <mxCell id="jTlXZSJkSVps8n7bUzwx-104" value="" style="shape=flexArrow;endArrow=classic;html=1;" parent="1" source="jTlXZSJkSVps8n7bUzwx-38" target="jTlXZSJkSVps8n7bUzwx-59" edge="1">
          <mxGeometry width="50" height="50" relative="1" as="geometry">
            <mxPoint x="680" y="520" as="sourcePoint" />
            <mxPoint x="730" y="470" as="targetPoint" />
          </mxGeometry>
        </mxCell>
        <mxCell id="-AypvJcpfiliAvQutzib-13" value="" style="shape=flexArrow;endArrow=classic;html=1;" edge="1" parent="1" source="jTlXZSJkSVps8n7bUzwx-44" target="jTlXZSJkSVps8n7bUzwx-71">
          <mxGeometry width="50" height="50" relative="1" as="geometry">
            <mxPoint x="-550" y="740" as="sourcePoint" />
            <mxPoint x="1040" y="420" as="targetPoint" />
          </mxGeometry>
        </mxCell>
        <mxCell id="-AypvJcpfiliAvQutzib-14" value="" style="shape=flexArrow;endArrow=classic;html=1;" edge="1" parent="1" source="jTlXZSJkSVps8n7bUzwx-35" target="jTlXZSJkSVps8n7bUzwx-65">
          <mxGeometry width="50" height="50" relative="1" as="geometry">
            <mxPoint x="1197.087967644085" y="400" as="sourcePoint" />
            <mxPoint x="1020" y="320" as="targetPoint" />
          </mxGeometry>
        </mxCell>
        <mxCell id="-AypvJcpfiliAvQutzib-15" value="" style="shape=flexArrow;endArrow=classic;html=1;" edge="1" parent="1" source="jTlXZSJkSVps8n7bUzwx-71" target="jTlXZSJkSVps8n7bUzwx-77">
          <mxGeometry width="50" height="50" relative="1" as="geometry">
            <mxPoint x="-490" y="1130" as="sourcePoint" />
            <mxPoint x="1570" y="420" as="targetPoint" />
          </mxGeometry>
        </mxCell>
        <mxCell id="-AypvJcpfiliAvQutzib-16" value="" style="endArrow=classic;html=1;entryX=0.36;entryY=0.592;entryDx=0;entryDy=0;entryPerimeter=0;" edge="1" parent="1" source="-AypvJcpfiliAvQutzib-17" target="jTlXZSJkSVps8n7bUzwx-109">
          <mxGeometry width="50" height="50" relative="1" as="geometry">
            <mxPoint x="130" y="310" as="sourcePoint" />
            <mxPoint x="210" y="320" as="targetPoint" />
          </mxGeometry>
        </mxCell>
        <mxCell id="-AypvJcpfiliAvQutzib-17" value="Premium Feature" style="text;html=1;strokeColor=none;fillColor=none;align=center;verticalAlign=middle;whiteSpace=wrap;rounded=0;" vertex="1" parent="1">
          <mxGeometry x="710" y="518" width="120" height="117" as="geometry" />
        </mxCell>
        <mxCell id="jTlXZSJkSVps8n7bUzwx-126" value="Red Box" style="strokeWidth=1;shadow=0;dashed=0;align=center;html=1;shape=mxgraph.mockup.forms.comboBox;strokeColor=#999999;fillColor=#ddeeff;align=left;fillColor2=#aaddff;mainText=;fontColor=#666666;fontSize=17;spacingLeft=3;" parent="1" vertex="1">
          <mxGeometry x="2710" y="2000.92" width="150" height="30" as="geometry" />
        </mxCell>
        <mxCell id="jTlXZSJkSVps8n7bUzwx-122" value="&lt;b&gt;&lt;font style=&quot;font-size: 20px&quot;&gt;Milk&lt;/font&gt;&lt;/b&gt;&lt;br style=&quot;font-size: 14px&quot;&gt;&lt;br style=&quot;font-size: 14px&quot;&gt;Blue box" style="html=1;shadow=0;dashed=0;shape=mxgraph.bootstrap.rrect;rSize=5;strokeColor=#BA2239;html=1;whiteSpace=wrap;fillColor=#DB2843;fontColor=#ffffff;verticalAlign=bottom;align=left;spacing=20;spacingBottom=0;fontSize=14;" parent="1" vertex="1">
          <mxGeometry x="2740" y="2090" width="170" height="110" as="geometry" />
        </mxCell>
        <mxCell id="jTlXZSJkSVps8n7bUzwx-123" value="2020-05-25" style="html=1;shadow=0;dashed=0;shape=mxgraph.bootstrap.topButton;rSize=5;perimeter=none;whiteSpace=wrap;fillColor=#D42741;strokeColor=#BA2239;fontColor=#ffffff;resizeWidth=1;fontSize=18;align=left;spacing=20;" parent="jTlXZSJkSVps8n7bUzwx-122" vertex="1">
          <mxGeometry width="170" height="30" relative="1" as="geometry" />
        </mxCell>
        <mxCell id="jTlXZSJkSVps8n7bUzwx-129" value="Use Seleted Item" style="rounded=1;html=1;shadow=0;dashed=0;whiteSpace=wrap;fontSize=10;fillColor=#66FF66;align=center;strokeColor=#4D4D4D;fontColor=#1A1A1A;gradientColor=#00CC00;" parent="1" vertex="1">
          <mxGeometry x="2790" y="2260" width="105.5" height="16.88" as="geometry" />
        </mxCell>
        <mxCell id="jTlXZSJkSVps8n7bUzwx-110" value="Normal" style="rounded=1;html=1;shadow=0;dashed=0;whiteSpace=wrap;fontSize=10;fillColor=#666666;align=center;strokeColor=#4D4D4D;fontColor=#ffffff;" parent="1" vertex="1">
          <mxGeometry x="2750" y="2330" width="105.5" height="16.88" as="geometry" />
        </mxCell>
      </root>
    </mxGraphModel>
  </diagram>
</mxfile>
